<svg xmlns="http://www.w3.org/2000/svg" version="1.1" xmlns:xlink="http://www.w3.org/1999/xlink" xmlns:svgjs="http://svgjs.dev/svgjs" width="1440" height="560" preserveAspectRatio="none" viewBox="0 0 1440 560"><g mask="url(&quot;#SvgjsMask1000&quot;)" fill="none"><rect width="1440" height="560" x="0" y="0" fill="rgba(55, 139, 192, 1)"></rect><path d="M0 0L354.84 0L0 68.3z" fill="rgba(255, 255, 255, .1)"></path><path d="M0 68.3L354.84 0L878.1399999999999 0L0 326.57z" fill="rgba(255, 255, 255, .075)"></path><path d="M0 326.57L878.1399999999999 0L1052.4499999999998 0L0 393.93z" fill="rgba(255, 255, 255, .05)"></path><path d="M0 393.93L1052.4499999999998 0L1282.7199999999998 0L0 431.51z" fill="rgba(255, 255, 255, .025)"></path><path d="M1440 560L730.17 560L1440 553.77z" fill="rgba(0, 0, 0, .1)"></path><path d="M1440 553.77L730.17 560L696.03 560L1440 515.98z" fill="rgba(0, 0, 0, .075)"></path><path d="M1440 515.98L696.03 560L528.64 560L1440 235.28000000000003z" fill="rgba(0, 0, 0, .05)"></path><path d="M1440 235.28000000000003L528.64 560L183.19 560L1440 141.01000000000005z" fill="rgba(0, 0, 0, .025)"></path></g><defs><mask id="SvgjsMask1000"><rect width="1440" height="560" fill="#ffffff"></rect></mask></defs></svg>